<?xml version="1.0" standalone="no"?>
<!DOCTYPE svg PUBLIC "-//W3C//DTD SVG 20010904//EN"
 "http://www.w3.org/TR/2001/REC-SVG-20010904/DTD/svg10.dtd">
<svg version="1.0" xmlns="http://www.w3.org/2000/svg"
 width="1280.000000pt" height="780.000000pt" viewBox="0 0 1280.000000 780.000000"
 preserveAspectRatio="xMidYMid meet">
<g transform="translate(0.000000,780.000000) scale(0.100000,-0.100000)"
fill="#000000" stroke="none">
<path d="M536 7791 c5 -5 1040 -714 2299 -1577 1260 -862 2581 -1767 2937
-2011 356 -243 650 -443 653 -443 4 0 347 233 763 518 416 285 1666 1141 2777
1902 1111 761 2092 1432 2180 1493 88 60 164 113 169 118 6 5 -2476 9 -5889 9
-3432 0 -5895 -4 -5889 -9z"/>
<path d="M0 3792 l0 -3459 21 -64 c26 -81 48 -116 103 -167 52 -48 63 -54 145
-81 l64 -21 6067 0 6067 0 64 21 c82 27 93 33 145 81 55 51 77 86 103 167 l21
64 0 3444 c0 1893 -2 3443 -5 3443 -3 0 -827 -563 -1832 -1252 -1006 -688
-2382 -1630 -3058 -2094 -677 -463 -1248 -849 -1270 -858 -175 -66 -298 -72
-405 -18 -36 18 -857 575 -1825 1238 -2206 1512 -4376 2998 -4392 3008 -10 6
-13 -687 -13 -3452z"/>
</g>
</svg>
